<svg xmlns="http://www.w3.org/2000/svg" viewBox="0 0 296 180"><defs><style>.cls-1{fill:#dfe0e0;}.cls-1,.cls-10,.cls-2,.cls-3,.cls-4,.cls-5,.cls-6,.cls-7,.cls-9{stroke:#000;}.cls-1,.cls-10,.cls-12,.cls-2,.cls-3,.cls-4,.cls-5,.cls-6,.cls-7,.cls-9{stroke-miterlimit:10;stroke-width:4px;}.cls-2{fill:#e3b098;}.cls-3,.cls-8,.cls-9{fill:#e15f76;}.cls-4{fill:#fbc4ac;}.cls-5,.cls-7{fill:none;}.cls-6{fill:#999;}.cls-12,.cls-7,.cls-9{stroke-linecap:round;}.cls-10{fill:#ffe78c;}.cls-11{fill:#d9c477;}.cls-12{fill:#f44336;stroke:#f44336;}</style></defs><g id="Слой_1" data-name="Слой 1"><g id="Body"><ellipse class="cls-1" cx="98.5" cy="191.5" rx="56.5" ry="70.5"/><ellipse class="cls-2" cx="98.5" cy="131.5" rx="13.5" ry="11.5"/><path class="cls-3" d="M143,148H54a65,65,0,0,0-7,17H150a65,65,0,0,0-7-17Z"/></g><g id="Head"><circle class="cls-2" cx="37" cy="73" r="10"/><circle class="cls-2" cx="158" cy="72" r="10"/><circle class="cls-4" cx="97.5" cy="71.5" r="61.5"/><path class="cls-5" d="M40,45,155,94"/><rect class="cls-6" x="111" y="65" width="19" height="27" rx="7.47"/><ellipse class="cls-4" cx="75.5" cy="78.5" rx="0.5" ry="2.5"/><path class="cls-7" d="M104,87c-.28.46-2.67,4.3-6.46,4-3.25-.27-5.19-3.4-5.54-4"/><ellipse class="cls-8" cx="75.5" cy="86.5" rx="3.5" ry="1.5"/></g><g id="Hat"><path class="cls-9" d="M29,64C29,31.42,59.44,5,97,5s68,26.42,68,59"/><path class="cls-9" d="M30,65l134-1"/></g></g><g id="Слой_2" data-name="Слой 2"><g id="Coin"><polygon class="cls-10" points="251.34 64 216.7 64 199.38 94 216.7 124 251.34 124 268.66 94 251.34 64"/><path class="cls-11" d="M234,112a18,18,0,0,1-18-18c0-4.86.33,6.44,6,12C227.92,111.81,239.08,112,234,112Z"/><path class="cls-11" d="M234.9,73.92a18,18,0,0,1,18,18c0,4.86-.34-6.44-6-12C241,74.11,229.82,73.92,234.9,73.92Z"/></g><g id="Cross"><line class="cls-12" x1="204.48" y1="64.48" x2="263.5" y2="123.5"/><line class="cls-12" x1="263.12" y1="64" x2="204.1" y2="123.02"/></g></g></svg>